<?xml version="1.0" encoding="UTF-8" standalone="no"?>
<svg
   width="141"
   height="146"
   version="1.1"
   id="svg16683"
   sodipodi:docname="calendar-2.svg"
   inkscape:version="1.1.2 (0a00cf5339, 2022-02-04)"
   xmlns:inkscape="http://www.inkscape.org/namespaces/inkscape"
   xmlns:sodipodi="http://sodipodi.sourceforge.net/DTD/sodipodi-0.dtd"
   xmlns="http://www.w3.org/2000/svg"
   xmlns:svg="http://www.w3.org/2000/svg">
  <defs
     id="defs16687" />
  <sodipodi:namedview
     id="namedview16685"
     pagecolor="#ffffff"
     bordercolor="#666666"
     borderopacity="1.0"
     inkscape:showpageshadow="2"
     inkscape:pageopacity="0.0"
     inkscape:pagecheckerboard="0"
     inkscape:deskcolor="#d1d1d1"
     showgrid="false"
     inkscape:zoom="4.765706"
     inkscape:cx="82.359256"
     inkscape:cy="97.467196"
     inkscape:window-width="1824"
     inkscape:window-height="1020"
     inkscape:window-x="96"
     inkscape:window-y="0"
     inkscape:window-maximized="1"
     inkscape:current-layer="svg16683"
     inkscape:pageshadow="2" />
  <rect
     style="fill:#0000ff;stroke:#000000;stroke-width:0.45;stroke-linecap:round;fill-opacity:1"
     id="rect20496"
     width="96.800003"
     height="71.199997"
     x="22.1"
     y="59.328644" />
  <g
     id="g18045"
     style="fill:#f7f2f2;fill-opacity:1">
    <path
       d="M 13.3,130.52864 V 41.528644 c 0,-2.4 0.9,-4.5 2.6,-6.3 1.7,-1.8 3.8,-2.6 6.2,-2.6 h 8.8 v -6.7 c 0,-3.1 1.1,-5.7 3.2,-7.9 2.2,-2.2 4.7,-3.3 7.8,-3.3 h 4.4 c 3,0 5.6,1.1 7.8,3.3 2.2,2.2 3.2,4.8 3.2,7.9 v 6.7 h 26.4 v -6.7 c 0,-3.1 1.1,-5.7 3.2,-7.9 2.2,-2.2 4.7,-3.3 7.8,-3.3 h 4.4 c 3,0 5.6,1.1 7.8,3.3 2.2,2.2 3.2,4.8 3.2,7.9 v 6.7 h 8.8 c 2.4,0 4.4,0.9 6.2,2.6 1.7,1.8 2.6,3.8 2.6,6.3 v 88.899996 c 0,2.4 -0.9,4.5 -2.6,6.3 -1.7,1.8 -3.8,2.6 -6.2,2.6 H 22.1 c -2.4,0 -4.4,-0.9 -6.2,-2.6 -1.7,-1.8 -2.6,-3.8 -2.6,-6.2 z m 8.8,0 h 96.8 V 59.328644 H 22.1 Z M 39.7,46.028644 c 0,0.6 0.2,1.2 0.6,1.6 0.4,0.4 0.9,0.6 1.6,0.6 h 4.4 c 0.6,0 1.2,-0.2 1.6,-0.6 0.4,-0.4 0.6,-0.9 0.6,-1.6 v -20 c 0,-0.6 -0.2,-1.2 -0.6,-1.6 -0.4,-0.4 -0.9,-0.6 -1.6,-0.6 h -4.4 c -0.6,0 -1.2,0.2 -1.6,0.6 -0.4,0.4 -0.6,1 -0.6,1.6 z m 52.8,0 c 0,0.6 0.2,1.2 0.6,1.6 0.4,0.4 0.9,0.6 1.6,0.6 h 4.4 c 0.6,0 1.2,-0.2 1.6,-0.6 0.4,-0.4 0.6,-0.9 0.6,-1.6 v -20 c 0,-0.6 -0.2,-1.2 -0.6,-1.6 -0.4,-0.4 -0.9,-0.6 -1.6,-0.6 h -4.4 c -0.6,0 -1.2,0.2 -1.6,0.6 -0.4,0.4 -0.6,1 -0.6,1.6 z"
       id="path16681"
       style="fill:#f7f2f2;fill-opacity:1" />
    <text
       xml:space="preserve"
       style="font-weight:bold;font-size:32.118px;line-height:1.25;font-family:sans-serif;-inkscape-font-specification:'sans-serif Bold';letter-spacing:0px;word-spacing:0px;fill:#f7f2f2;fill-opacity:1;stroke-width:0.376384"
       x="24.680445"
       y="90.869804"
       id="text18034"><tspan
         sodipodi:role="line"
         id="tspan18032"
         x="24.680445"
         y="90.869804"
         style="fill:#f7f2f2;fill-opacity:1;stroke-width:0.376384" /></text>
    <text
       xml:space="preserve"
       style="font-weight:bold;font-size:76.0506px;line-height:1.25;font-family:sans-serif;-inkscape-font-specification:'sans-serif Bold';letter-spacing:0px;word-spacing:0px;fill:#f7f2f2;fill-opacity:1;stroke-width:0.891221"
       x="45.265862"
       y="122.67879"
       id="text18034-3"><tspan
         sodipodi:role="line"
         id="tspan18032-6"
         x="45.265862"
         y="122.67879"
         style="fill:#f7f2f2;fill-opacity:1;stroke-width:0.891221">2</tspan></text>
  </g>
</svg>
