<?xml version="1.0" encoding="UTF-8" standalone="no"?>
<svg
   width="141"
   height="146"
   version="1.1"
   id="svg16683"
   xmlns="http://www.w3.org/2000/svg"
   xmlns:svg="http://www.w3.org/2000/svg">
  <defs
     id="defs16687" />
  <rect
     style="fill:#ffcc00;fill-opacity:1;stroke:#000000;stroke-width:0.45;stroke-linecap:round"
     id="rect20496"
     width="96.800003"
     height="71.199997"
     x="22.1"
     y="59.328644" />
  <g
     id="g18045"
     style="fill:#f7f2f2;fill-opacity:1">
    <path
       d="M 13.3,130.52864 V 41.528644 c 0,-2.4 0.9,-4.5 2.6,-6.3 1.7,-1.8 3.8,-2.6 6.2,-2.6 h 8.8 v -6.7 c 0,-3.1 1.1,-5.7 3.2,-7.9 2.2,-2.2 4.7,-3.3 7.8,-3.3 h 4.4 c 3,0 5.6,1.1 7.8,3.3 2.2,2.2 3.2,4.8 3.2,7.9 v 6.7 h 26.4 v -6.7 c 0,-3.1 1.1,-5.7 3.2,-7.9 2.2,-2.2 4.7,-3.3 7.8,-3.3 h 4.4 c 3,0 5.6,1.1 7.8,3.3 2.2,2.2 3.2,4.8 3.2,7.9 v 6.7 h 8.8 c 2.4,0 4.4,0.9 6.2,2.6 1.7,1.8 2.6,3.8 2.6,6.3 v 88.899996 c 0,2.4 -0.9,4.5 -2.6,6.3 -1.7,1.8 -3.8,2.6 -6.2,2.6 H 22.1 c -2.4,0 -4.4,-0.9 -6.2,-2.6 -1.7,-1.8 -2.6,-3.8 -2.6,-6.2 z m 8.8,0 h 96.8 V 59.328644 H 22.1 Z M 39.7,46.028644 c 0,0.6 0.2,1.2 0.6,1.6 0.4,0.4 0.9,0.6 1.6,0.6 h 4.4 c 0.6,0 1.2,-0.2 1.6,-0.6 0.4,-0.4 0.6,-0.9 0.6,-1.6 v -20 c 0,-0.6 -0.2,-1.2 -0.6,-1.6 -0.4,-0.4 -0.9,-0.6 -1.6,-0.6 h -4.4 c -0.6,0 -1.2,0.2 -1.6,0.6 -0.4,0.4 -0.6,1 -0.6,1.6 z m 52.8,0 c 0,0.6 0.2,1.2 0.6,1.6 0.4,0.4 0.9,0.6 1.6,0.6 h 4.4 c 0.6,0 1.2,-0.2 1.6,-0.6 0.4,-0.4 0.6,-0.9 0.6,-1.6 v -20 c 0,-0.6 -0.2,-1.2 -0.6,-1.6 -0.4,-0.4 -0.9,-0.6 -1.6,-0.6 h -4.4 c -0.6,0 -1.2,0.2 -1.6,0.6 -0.4,0.4 -0.6,1 -0.6,1.6 z"
       id="path16681"
       style="fill:#f7f2f2;fill-opacity:1" />
    <text
       xml:space="preserve"
       style="font-weight:bold;font-size:32.118px;line-height:1.25;font-family:sans-serif;-inkscape-font-specification:'sans-serif Bold';letter-spacing:0px;word-spacing:0px;fill:#f7f2f2;fill-opacity:1;stroke-width:0.376384"
       x="24.680445"
       y="90.869804"
       id="text18034"><tspan
         id="tspan18032"
         x="24.680445"
         y="90.869804"
         style="fill:#f7f2f2;fill-opacity:1;stroke-width:0.376384" /></text>
    <g
       aria-label="J"
       id="text18034-3"
       style="font-weight:bold;font-size:113.654px;line-height:1.25;-inkscape-font-specification:'sans-serif Bold';letter-spacing:0px;word-spacing:0px;stroke-width:1.33189">
      <path
         d="m 93.31608,125.6939 q -1.022886,0.90924 -2.84135,2.38674 -0.795578,0.56827 -2.727696,0.56827 h -3.636928 q -0.56827,0 -3.750582,-1.2502 -3.182312,-1.13654 -3.750582,-1.13654 -0.454616,0 -0.454616,0.11366 v 0 q 0,0.22731 -0.454616,0.22731 -2.045772,0 -10.79713,-4.09155 -1.70481,-0.79558 -5.228084,-3.63693 -0.681924,-1.02288 -2.386734,-2.50038 -0.113654,-0.34097 -0.340962,-0.68193 -0.113654,-0.45461 -0.113654,-1.13654 0,-1.25019 0.909232,-2.15942 0.909232,-1.02289 1.818464,-1.02289 0.340962,0 1.932118,0.56827 0.795578,1.13654 2.386734,2.955 2.84135,2.27308 5.11443,3.63693 2.386734,1.2502 6.591932,2.7277 3.864236,1.36385 4.659814,1.36385 0.454616,0 2.386734,0.11365 1.932118,0.22731 2.500388,0.22731 1.70481,0 1.932118,-1.02289 -0.113654,0.56827 -0.113654,-1.70481 0,-1.70481 -2.27308,-9.54693 -2.159426,-7.84213 -2.159426,-12.047329 v -11.93367 q 0,-7.273856 -0.681924,-7.842126 0.113654,0 -6.023662,1.591156 -6.023662,1.591156 -7.95578,1.591156 -0.454616,0 -2.614042,0.454616 -2.159426,0.340962 -2.614042,0.340962 -2.500388,0 -6.81924,-1.818464 -5.455392,-2.386734 -5.455392,-5.569046 0,-0.454616 0.227308,-1.477502 0.227308,-1.13654 0.227308,-1.477502 0.113654,0 0.454616,-0.227308 0.340962,-0.227308 0.909232,-0.227308 0.454616,0 1.70481,1.477502 1.477502,1.818464 2.386734,2.386734 2.727696,1.70481 8.183088,1.70481 1.363848,0 6.364624,-0.909232 6.25097,-1.022886 9.433282,-2.386734 2.500388,-1.022886 5.569046,-4.432505 0.454616,0.113654 1.250194,0.113654 0.454616,-0.113654 0.795578,-0.113654 2.27308,0 2.27308,2.159425 0,0.340962 -0.795578,1.363848 -0.681924,1.022886 -0.795578,1.250194 -0.795578,2.84135 -0.795578,5.796354 0,0 0.227308,5.455392 0.227308,5.455392 0.227308,7.614818 -0.113654,8.296739 4.205198,23.867339 0.681924,-0.79558 0.909232,-0.79558 z"
         style="font-family:Delphine;-inkscape-font-specification:'Delphine Bold';fill:#333333"
         id="path827" />
    </g>
  </g>
</svg>
