<?xml version="1.0" encoding="UTF-8" standalone="no"?>
<svg
   width="141"
   height="146"
   version="1.1"
   id="svg16683"
   sodipodi:docname="calendar.svg"
   inkscape:version="1.2.2 (b0a8486541, 2022-12-01)"
   xmlns:inkscape="http://www.inkscape.org/namespaces/inkscape"
   xmlns:sodipodi="http://sodipodi.sourceforge.net/DTD/sodipodi-0.dtd"
   xmlns="http://www.w3.org/2000/svg"
   xmlns:svg="http://www.w3.org/2000/svg">
  <defs
     id="defs16687" />
  <sodipodi:namedview
     id="namedview16685"
     pagecolor="#ffffff"
     bordercolor="#666666"
     borderopacity="1.0"
     inkscape:showpageshadow="2"
     inkscape:pageopacity="0.0"
     inkscape:pagecheckerboard="0"
     inkscape:deskcolor="#d1d1d1"
     showgrid="false"
     inkscape:zoom="2.382853"
     inkscape:cx="95.263955"
     inkscape:cy="86.45099"
     inkscape:window-width="1920"
     inkscape:window-height="1143"
     inkscape:window-x="0"
     inkscape:window-y="33"
     inkscape:window-maximized="1"
     inkscape:current-layer="g18045" />
  <g
     id="g18045"
     style="fill:#f7f2f2;fill-opacity:1">
    <path
       d="M13.3,126.4V37.4c0-2.4,.9-4.5,2.6-6.3c1.7-1.8,3.8-2.6 6.2-2.6h8.8v-6.7c0-3.1,1.1-5.7,3.2-7.9c2.2-2.2,4.7-3.3,7.8-3.3h4.4c3,0 5.6,1.1,7.8,3.3c2.2,2.2,3.2,4.8,3.2,7.9v6.7h26.4v-6.7c0-3.1,1.1-5.7 3.2-7.9c2.2-2.2,4.7-3.3,7.8-3.3h4.4c3,0,5.6,1.1,7.8,3.3c2.2,2.2,3.2 4.8,3.2,7.9v6.7h8.8c2.4,0,4.4,.9,6.2,2.6c1.7,1.8,2.6,3.8,2.6,6.3v88.9c0 2.4-.9,4.5-2.6,6.3c-1.7,1.8-3.8,2.6-6.2,2.6H22.1c-2.4,0-4.4-.9-6.2-2.6C14.2,130.8 13.3,128.8,13.3,126.4z M22.1,126.4h96.8V55.2H22.1V126.4z M39.7,41.9c0,.6,.2,1.2 .6,1.6c.4,.4,.9,.6,1.6,.6h4.4c.6,0,1.2-.2,1.6-.6c.4-.4 .6-.9,.6-1.6v-20c0-.6-.2-1.2-.6-1.6c-.4-.4-.9-.6-1.6-.6h-4.4c-.6,0-1.2,.2-1.6 .6c-.4,.4-.6,1-.6,1.6V41.9z M92.5,41.9c0,.6,.2,1.2,.6,1.6c.4,.4,.9,.6 1.6,.6h4.4c.6,0,1.2-.2,1.6-.6c.4-.4 .6-.9,.6-1.6v-20c0-.6-.2-1.2-.6-1.6c-.4-.4-.9-.6-1.6-.6h-4.4c-.6 0-1.2,.2-1.6,.6c-.4,.4-.6,1-.6,1.6V41.9z"
       id="path16681"
       style="fill:#f7f2f2;fill-opacity:1" />
    <text
       xml:space="preserve"
       style="font-weight:bold;font-size:43.8185px;line-height:1.25;font-family:sans-serif;-inkscape-font-specification:'sans-serif Bold';letter-spacing:0px;word-spacing:0px;fill:#f7f2f2;fill-opacity:1;stroke-width:0.513499"
       x="25.867491"
       y="109.05516"
       id="text18034"><tspan
         sodipodi:role="line"
         id="tspan18032"
         x="25.867491"
         y="109.05516"
         style="fill:#f7f2f2;fill-opacity:1;stroke-width:0.513499">123</tspan></text>
  </g>
</svg>
