<?xml version="1.0" standalone="no"?>
<!DOCTYPE svg PUBLIC "-//W3C//DTD SVG 20010904//EN"
 "http://www.w3.org/TR/2001/REC-SVG-20010904/DTD/svg10.dtd">
<svg version="1.0" xmlns="http://www.w3.org/2000/svg"
 width="187.000000pt" height="187.000000pt" viewBox="0 0 187.000000 187.000000"
 preserveAspectRatio="xMidYMid meet">
<metadata>
Created by potrace 1.14, written by Peter Selinger 2001-2017
</metadata>
<g transform="translate(0.000000,187.000000) scale(0.100000,-0.100000)"
fill="#000000" stroke="none">
<path d="M745 1840 c-286 -63 -521 -243 -648 -495 -70 -140 -92 -243 -91 -420
1 -144 24 -249 84 -373 53 -112 90 -164 179 -253 191 -190 429 -285 691 -275
119 5 146 8 233 32 184 51 368 175 484 326 61 78 128 211 159 313 24 79 27
108 28 235 1 159 -21 272 -70 370 -13 26 -24 51 -24 54 0 19 -99 156 -157 217
-116 122 -318 238 -460 264 -16 2 -49 9 -76 14 -78 14 -245 10 -332 -9z"/>
</g>
</svg>
